HIERARCHY
ROOT Pelvis
{
	OFFSET 0.000000 0.000000 0.000000
	CHANNELS 6 Xposition Yposition Zposition Xrotation Yrotation Zrotation
	JOINT LeftUpLeg_virtual
	{
		OFFSET 0.000000 0.000000 0.000000
		CHANNELS 3 Xrotation Yrotation Zrotation
		JOINT LeftUpLeg
		{
			OFFSET 18.735201 -5.666702 -4.541200
			CHANNELS 3 Xrotation Yrotation Zrotation
			JOINT LeftLeg
			{
				OFFSET -0.021200 -31.938179 0.493100
				CHANNELS 3 Xrotation Yrotation Zrotation
				JOINT LeftFoot
				{
					OFFSET 0.021200 -31.938179 -4.336299
					CHANNELS 3 Xrotation Yrotation Zrotation
					JOINT LeftToeBase
					{
						OFFSET 0.943001 -26.722000 15.023500
						CHANNELS 3 Xrotation Yrotation Zrotation
						End Site
						{
							OFFSET 0 0 0
						}
					}
				}
			}
		}
	}
	JOINT RightUpLeg_virtual
	{
		OFFSET 0.000000 0.000000 0.000000
		CHANNELS 3 Xrotation Yrotation Zrotation
		JOINT RightUpLeg
		{
			OFFSET -18.735201 -5.666702 -4.541200
			CHANNELS 3 Xrotation Yrotation Zrotation
			JOINT RightLeg
			{
				OFFSET 0.018946 -31.938133 0.493100
				CHANNELS 3 Xrotation Yrotation Zrotation
				JOINT RightFoot
				{
					OFFSET -0.018946 -31.938126 -4.336299
					CHANNELS 3 Xrotation Yrotation Zrotation
					JOINT RightToeBase
					{
						OFFSET -0.943001 -26.722004 15.023500
						CHANNELS 3 Xrotation Yrotation Zrotation
						End Site
						{
							OFFSET 0 0 0
						}
					}
				}
			}
		}
	}
	JOINT Hips_virtual
	{
		OFFSET 0.000000 0.000000 0.000000
		CHANNELS 3 Xrotation Yrotation Zrotation
		JOINT Hips
		{
			OFFSET -0.000000 -0.000000 -0.000000
			CHANNELS 3 Xrotation Yrotation Zrotation
			JOINT Spine
			{
				OFFSET 0.000000 10.199997 -0.299500
				CHANNELS 3 Xrotation Yrotation Zrotation
				JOINT Spine1
				{
					OFFSET 0.000000 11.900002 -1.516600
					CHANNELS 3 Xrotation Yrotation Zrotation
					JOINT Spine2
					{
						OFFSET 0.000000 13.600006 -2.842500
						CHANNELS 3 Xrotation Yrotation Zrotation
						JOINT Neck_virtual
						{
							OFFSET 0.000000 0.000000 0.000000
							CHANNELS 3 Xrotation Yrotation Zrotation
							JOINT Neck
							{
								OFFSET 0.000000 9.624100 -2.890100
								CHANNELS 3 Xrotation Yrotation Zrotation
								JOINT Head
								{
									OFFSET 0.000000 14.068802 -1.351900
									CHANNELS 3 Xrotation Yrotation Zrotation
									End Site
									{
										OFFSET 0 0 0
									}
								}
							}
						}
						JOINT LeftShoulder_virtual
						{
							OFFSET 0.000000 0.000000 0.000000
							CHANNELS 3 Xrotation Yrotation Zrotation
							JOINT LeftShoulder
							{
								OFFSET 15.263000 10.923401 -0.547700
								CHANNELS 3 Xrotation Yrotation Zrotation
								JOINT LeftArm
								{
									OFFSET 25.438599 -2.830597 -13.032500
									CHANNELS 3 Xrotation Yrotation Zrotation
									JOINT LeftForeArm
									{
										OFFSET 29.960503 0.000000 0.000000
										CHANNELS 3 Xrotation Yrotation Zrotation
										JOINT LeftHand
										{
											OFFSET 27.849251 0.000000 0.000000
											CHANNELS 3 Xrotation Yrotation Zrotation
											End Site
											{
												OFFSET 0 0 0
											}
										}
									}
								}
							}
						}
						JOINT RightShoulder_virtual
						{
							OFFSET 0.000000 0.000000 0.000000
							CHANNELS 3 Xrotation Yrotation Zrotation
							JOINT RightShoulder
							{
								OFFSET -15.263000 10.923401 -0.547700
								CHANNELS 3 Xrotation Yrotation Zrotation
								JOINT RightArm
								{
									OFFSET -25.438599 -2.830597 -13.032500
									CHANNELS 3 Xrotation Yrotation Zrotation
									JOINT RightForeArm
									{
										OFFSET -29.960503 0.000000 0.000000
										CHANNELS 3 Xrotation Yrotation Zrotation
										JOINT RightHand
										{
											OFFSET -27.849251 0.000000 0.000000
											CHANNELS 3 Xrotation Yrotation Zrotation
											End Site
											{
												OFFSET 0 0 0
											}
										}
									}
								}
							}
						}
					}
				}
			}
		}
	}
}
MOTION
Frames: 5
Frame Time: 0.03333333
-15.659622 136.617142 5.300814 0.000000 0.000000 0.000000 3.716589 -5.580805 4.556468 -31.744670 6.662876 17.699523 27.890688 -0.981189 -11.127506 57.967973 -9.046992 -11.608311 0.000000 0.000000 0.000000 3.718253 -5.078850 3.045545 1.850458 -14.166106 4.677740 3.329918 -23.730101 0.851991 37.376738 -14.614906 12.387256 0.000000 0.000000 0.000000 3.574030 -5.915103 3.910688 -0.805178 0.042419 0.071383 -17.600916 -4.988517 -0.087225 1.356218 4.086417 -5.089229 0.000000 0.000000 0.000000 0.016538 3.647785 -0.649898 5.773615 -4.743919 1.635645 0.000000 0.000000 0.000000 -2.929740 3.138282 -0.444495 14.126482 -11.337358 51.657995 -52.813386 -8.382561 -4.047670 -22.899626 -21.301611 12.056450 0.000000 0.000000 0.000000 -2.150681 3.484225 -1.976228 12.271516 -19.575455 -23.772062 -66.245909 31.181214 10.833790 -34.530657 34.911306 41.827361 0.000000 0.000000 0.000000 
-15.144850 136.510605 4.457256 0.000000 0.000000 0.000000 3.595101 -7.372075 4.767072 -33.848409 7.197629 17.087554 31.029146 -1.324744 -11.744274 55.889997 -8.275058 -11.868353 0.000000 0.000000 0.000000 3.709302 -7.305867 3.629513 -0.943603 -14.242164 1.086337 10.028461 -21.159779 3.580530 45.638836 -5.927218 17.619749 0.000000 0.000000 0.000000 3.865340 -8.217956 4.248867 -0.849253 -0.006726 0.000516 -18.268324 -4.858787 0.321112 0.990918 4.362616 -5.216404 0.000000 0.000000 0.000000 -0.198204 3.926152 -0.859947 5.468782 -4.694360 1.595246 0.000000 0.000000 0.000000 -2.721458 3.409404 -0.634428 14.528086 -12.202955 51.559329 -54.254839 -8.407731 -5.491239 -23.766688 -25.601878 11.762347 0.000000 0.000000 0.000000 -2.519987 3.809069 -2.278488 12.883315 -19.632153 -23.990626 -66.699065 30.819955 12.103468 -32.790389 32.560533 39.791637 0.000000 0.000000 0.000000 
-13.984343 136.390472 2.872595 0.000000 0.000000 0.000000 3.393036 -11.291568 4.840194 -38.059443 7.926699 16.681943 37.241251 -3.235279 -12.768397 50.047900 -9.788693 -14.383550 0.000000 0.000000 0.000000 3.504469 -11.437388 4.029646 -5.119335 -13.808257 -2.453960 19.746161 -18.694993 5.454835 52.155301 0.871540 18.819415 0.000000 0.000000 0.000000 4.001754 -12.429657 4.603612 -0.817152 0.035858 -0.073359 -18.271028 -4.195772 1.045306 0.835323 4.982397 -5.334363 0.000000 0.000000 0.000000 -0.775310 4.573799 -1.110574 5.088169 -4.468894 1.566924 0.000000 0.000000 0.000000 -2.308659 4.094342 -0.566440 14.838871 -12.059761 51.238566 -58.071860 -9.199497 -7.895971 -24.853750 -30.784947 12.223728 0.000000 0.000000 0.000000 -2.822844 4.524977 -2.444075 14.640020 -18.257126 -24.176923 -67.530558 30.747073 12.373992 -31.004326 30.588555 37.813669 0.000000 0.000000 0.000000 
-12.459726 136.510162 0.772118 0.000000 0.000000 0.000000 3.228426 -16.996594 4.876758 -42.579478 8.843664 16.371941 44.428683 -5.663128 -13.558910 40.174555 -11.229107 -18.317186 0.000000 0.000000 0.000000 3.433872 -17.023222 4.293066 -8.415957 -12.841742 -5.210612 28.561862 -18.034983 5.156097 52.678165 1.987220 16.480352 0.000000 0.000000 0.000000 4.089929 -18.059963 4.995849 -0.758078 0.105649 -0.082858 -17.622204 -3.108601 1.890344 1.081049 5.816132 -5.364586 0.000000 0.000000 0.000000 -1.348517 5.490382 -1.327048 4.671691 -4.084244 1.587357 0.000000 0.000000 0.000000 -1.605094 5.105993 -0.263619 14.888513 -10.696583 50.770579 -62.367939 -10.408028 -10.313794 -25.972681 -35.019022 13.527866 0.000000 0.000000 0.000000 -3.003593 5.511793 -2.421390 17.185466 -15.681185 -24.605741 -68.567415 31.553459 12.208594 -28.958356 28.765495 35.661705 0.000000 0.000000 0.000000 
-10.810720 136.796814 -1.618792 0.000000 0.000000 0.000000 3.259598 -24.241159 4.978831 -45.543688 9.865436 15.619406 50.136730 -7.352547 -13.659351 27.820764 -10.598065 -21.731111 0.000000 0.000000 0.000000 3.768173 -23.905220 4.525230 -9.797736 -11.146137 -7.305130 34.754639 -18.717700 2.914272 49.574585 0.181411 12.428040 0.000000 0.000000 0.000000 4.316793 -24.794888 5.380235 -0.728556 0.135503 -0.068767 -16.569276 -1.907812 2.640882 1.725560 6.711247 -5.217392 0.000000 0.000000 0.000000 -1.483259 6.596443 -1.426945 4.269300 -3.603669 1.697516 0.000000 0.000000 0.000000 -0.498341 6.324110 0.136509 14.526791 -8.087258 49.931958 -65.556265 -12.052384 -11.461623 -26.954819 -37.241159 15.460586 0.000000 0.000000 0.000000 -3.134571 6.655169 -2.193149 19.927977 -12.515429 -25.587386 -69.646196 33.270818 12.214659 -26.611896 26.954681 32.844768 0.000000 0.000000 0.000000 
